# xmcd
#
# Track frame offsets:
#	150
#	41300
#	86723
#	123988
#	163608
#	206073
#	235558
#
# Disc length: 3588 seconds
#
# Revision: 1
# Processed by: cddbd v1.5.2PL0 Copyright (c) Steve Scherf et al.
# Submitted via: audiograbber 1.83.01
#
DISCID=500e0207
DTITLE=Grateful Dead - 80-12-26 Oakland Auditorium Arena, Oakland CA
DYEAR=1900
DGENRE=
TTITLE0=Scarlet Begonias
TTITLE1=Fire On The Mountain
TTITLE2=Samson and Delilah
TTITLE3=Ship Of Fools
TTITLE4=To Lay Me Down
TTITLE5=New Minglewood Blues
TTITLE6=Ramble On Rose
EXTD=
EXTT0=
EXTT1=
EXTT2=
EXTT3=
EXTT4=
EXTT5=
EXTT6=
PLAYORDER=
